<svg width="28" height="28" viewBox="0 0 28 28" fill="none" xmlns="http://www.w3.org/2000/svg">
<path d="M12.4772 17.9038C12.4936 16.9435 12.6046 16.1849 12.8101 15.6281C13.0156 15.0713 13.4349 14.4539 14.0678 13.7761L15.6831 12.1419C16.3736 11.3753 16.7189 10.5521 16.7189 9.67249C16.7189 8.82515 16.4928 8.16342 16.0407 7.68729C15.5886 7.20309 14.9309 6.961 14.0678 6.961C13.2293 6.961 12.5553 7.17888 12.0456 7.61466C11.536 8.05044 11.2811 8.63551 11.2811 9.36987H9C9.01644 8.06254 9.48911 7.00941 10.418 6.21049C11.3551 5.4035 12.5717 5 14.0678 5C15.6215 5 16.8298 5.41157 17.693 6.2347C18.5643 7.04976 19 8.17149 19 9.59987C19 11.0121 18.3342 12.4042 17.0025 13.7761L15.6584 15.0834C15.0584 15.7371 14.7583 16.6772 14.7583 17.9038H12.4772ZM12.3785 21.7411C12.3785 21.3779 12.4895 21.0753 12.7115 20.8332C12.9416 20.5831 13.2787 20.458 13.7226 20.458C14.1665 20.458 14.5035 20.5831 14.7337 20.8332C14.9638 21.0753 15.0789 21.3779 15.0789 21.7411C15.0789 22.1042 14.9638 22.4069 14.7337 22.649C14.5035 22.883 14.1665 23 13.7226 23C13.2787 23 12.9416 22.883 12.7115 22.649C12.4895 22.4069 12.3785 22.1042 12.3785 21.7411Z" fill="#253B4D"/>
</svg>
