<svg width="16" height="20" viewBox="0 0 16 20" fill="none" xmlns="http://www.w3.org/2000/svg">
<path d="M9.85716 0.714844H2.42858C1.93604 0.714844 1.46367 0.910506 1.11539 1.25879C0.767104 1.60707 0.571442 2.07944 0.571442 2.57199V17.4291C0.571442 17.9217 0.767104 18.394 1.11539 18.7423C1.46367 19.0906 1.93604 19.2863 2.42858 19.2863H13.5714C14.064 19.2863 14.5364 19.0906 14.8846 18.7423C15.2329 18.394 15.4286 17.9217 15.4286 17.4291V6.28627M9.85716 0.714844L15.4286 6.28627M9.85716 0.714844V6.28627H15.4286M11.7143 10.9291H4.28573M11.7143 14.6434H4.28573M6.14287 7.21484H4.28573" stroke="white" stroke-linecap="round" stroke-linejoin="round"/>
</svg>
