<svg width="28" height="28" viewBox="0 0 28 28" fill="none" xmlns="http://www.w3.org/2000/svg">
<path d="M21 23L14 18L7 23V7C7 6.46957 7.21071 5.96086 7.58579 5.58579C7.96086 5.21071 8.46957 5 9 5H19C19.5304 5 20.0391 5.21071 20.4142 5.58579C20.7893 5.96086 21 6.46957 21 7V23Z" fill="#7D8E9D" stroke="#7D8E9D" stroke-linecap="round" stroke-linejoin="round"/>
<path fill-rule="evenodd" clip-rule="evenodd" d="M9 5.5C8.60218 5.5 8.22064 5.65804 7.93934 5.93934C7.65804 6.22064 7.5 6.60218 7.5 7V22.0284L13.7094 17.5931C13.8832 17.469 14.1168 17.469 14.2906 17.5931L20.5 22.0284V7C20.5 6.60218 20.342 6.22064 20.0607 5.93934C19.7794 5.65804 19.3978 5.5 19 5.5H9ZM7.23223 5.23223C7.70107 4.76339 8.33696 4.5 9 4.5H19C19.663 4.5 20.2989 4.76339 20.7678 5.23223C21.2366 5.70107 21.5 6.33696 21.5 7V23C21.5 23.1873 21.3953 23.3589 21.2288 23.4446C21.0623 23.5303 20.8618 23.5157 20.7094 23.4069L14 18.6145L7.29062 23.4069C7.13821 23.5157 6.93774 23.5303 6.77121 23.4446C6.60467 23.3589 6.5 23.1873 6.5 23V7C6.5 6.33696 6.76339 5.70107 7.23223 5.23223Z" fill="#7D8E9D"/>
</svg>
